<svg width="100%" height="100%" xmlns="http://www.w3.org/2000/svg" viewBox="0 0 1152 576">
	<rect x="50" y="50" width="960" height="480" stroke="black" stroke-width="1" fill="white"/>
	<text x="50" y="45" font-family="arial" font-size="20" fill="blue">Section 02 -- equipe 3048 -- EMBOT</text>
	<text x="50" y="550" font-family="arial" font-size="20" fill="blue">Aire: 2057 pouces carres</text>
	<polygon points="695,455 805,455 145,34 255,34 475,34 915,34 365,235 585,235 255,125 915,125" stroke="black" stroke-width="1" fill ="green"/>
	<rect x="145" y="455" width="5" height="5" stroke="black" stroke-width="1" fill="black"/>
	<rect x="255" y="455" width="5" height="5" stroke="black" stroke-width="1" fill="black"/>
	<rect x="365" y="455" width="5" height="5" stroke="black" stroke-width="1" fill="black"/>
	<rect x="475" y="455" width="5" height="5" stroke="black" stroke-width="1" fill="black"/>
	<rect x="585" y="455" width="5" height="5" stroke="black" stroke-width="1" fill="black"/>
	<circle cx="695" cy="455" r="10" stroke="gray" stroke-width="1" fill="gray"/>
	<circle cx="805" cy="455" r="10" stroke="gray" stroke-width="1" fill="gray"/>
	<rect x="915" y="455" width="5" height="5" stroke="black" stroke-width="1" fill="black"/>
	<circle cx="145" cy="345" r="10" stroke="gray" stroke-width="1" fill="gray"/>
	<circle cx="255" cy="345" r="10" stroke="gray" stroke-width="1" fill="gray"/>
	<rect x="365" y="345" width="5" height="5" stroke="black" stroke-width="1" fill="black"/>
	<circle cx="475" cy="345" r="10" stroke="gray" stroke-width="1" fill="gray"/>
	<rect x="585" y="345" width="5" height="5" stroke="black" stroke-width="1" fill="black"/>
	<rect x="695" y="345" width="5" height="5" stroke="black" stroke-width="1" fill="black"/>
	<rect x="805" y="345" width="5" height="5" stroke="black" stroke-width="1" fill="black"/>
	<circle cx="915" cy="345" r="10" stroke="gray" stroke-width="1" fill="gray"/>
	<rect x="145" y="235" width="5" height="5" stroke="black" stroke-width="1" fill="black"/>
	<rect x="255" y="235" width="5" height="5" stroke="black" stroke-width="1" fill="black"/>
	<circle cx="365" cy="235" r="10" stroke="gray" stroke-width="1" fill="gray"/>
	<rect x="475" y="235" width="5" height="5" stroke="black" stroke-width="1" fill="black"/>
	<circle cx="585" cy="235" r="10" stroke="gray" stroke-width="1" fill="gray"/>
	<rect x="695" y="235" width="5" height="5" stroke="black" stroke-width="1" fill="black"/>
	<rect x="805" y="235" width="5" height="5" stroke="black" stroke-width="1" fill="black"/>
	<rect x="915" y="235" width="5" height="5" stroke="black" stroke-width="1" fill="black"/>
	<rect x="145" y="125" width="5" height="5" stroke="black" stroke-width="1" fill="black"/>
	<circle cx="255" cy="125" r="10" stroke="gray" stroke-width="1" fill="gray"/>
	<rect x="365" y="125" width="5" height="5" stroke="black" stroke-width="1" fill="black"/>
	<rect x="475" y="125" width="5" height="5" stroke="black" stroke-width="1" fill="black"/>
	<rect x="585" y="125" width="5" height="5" stroke="black" stroke-width="1" fill="black"/>
	<rect x="695" y="125" width="5" height="5" stroke="black" stroke-width="1" fill="black"/>
	<rect x="805" y="125" width="5" height="5" stroke="black" stroke-width="1" fill="black"/>
	<circle cx="915" cy="125" r="10" stroke="gray" stroke-width="1" fill="gray"/>
</svg>
